<svg width="14" height="22" viewBox="0 0 14 22" fill="none" xmlns="http://www.w3.org/2000/svg">
<path d="M3.00456 10.7224L12.3609 2.198C12.582 2.0004 12.6857 1.7402 12.6857 1.47164C12.6857 1.28312 12.6285 1.01037 12.4159 0.810674C12.0448 0.416692 11.4328 0.393997 11.0372 0.761156L0.909498 9.98461C0.714563 10.157 0.583496 10.4111 0.583496 10.6999L0.583496 10.6999L0.583496 10.7L0.583496 10.7001L0.583496 10.7002L0.583496 10.7002L0.583496 10.7003L0.583496 10.7004L0.583496 10.7004L0.583496 10.7005L0.583496 10.7006L0.583496 10.7006L0.583496 10.7007L0.583496 10.7008L0.583496 10.7009L0.583496 10.7009L0.583496 10.701L0.583496 10.7011L0.583496 10.7011L0.583496 10.7012L0.583496 10.7013L0.583496 10.7013L0.583496 10.7014L0.583496 10.7015L0.583496 10.7015L0.583496 10.7016L0.583496 10.7016L0.583496 10.7017L0.583496 10.7018L0.583496 10.7018L0.583496 10.7019L0.583496 10.702L0.583496 10.702L0.583496 10.7021L0.583496 10.7022L0.583496 10.7022L0.583496 10.7023L0.583496 10.7023L0.583496 10.7024L0.583496 10.7025L0.583496 10.7025L0.583496 10.7026L0.583496 10.7026L0.583496 10.7027L0.583496 10.7028L0.583496 10.7028L0.583496 10.7029L0.583496 10.7029L0.583496 10.703L0.583496 10.7031L0.583496 10.7031L0.583496 10.7032L0.583496 10.7032L0.583496 10.7033L0.583496 10.7034L0.583496 10.7034L0.583496 10.7035L0.583496 10.7035L0.583496 10.7036L0.583496 10.7036L0.583496 10.7037L0.583496 10.7037L0.583496 10.7038L0.583496 10.7039L0.583496 10.7039L0.583496 10.704L0.583496 10.704L0.583496 10.7041L0.583496 10.7041L0.583496 10.7042L0.583496 10.7042L0.583496 10.7043L0.583496 10.7043L0.583496 10.7044L0.583496 10.7044L0.583496 10.7045L0.583496 10.7046L0.583496 10.7046L0.583496 10.7047L0.583496 10.7047L0.583496 10.7048L0.583496 10.7048L0.583496 10.7049L0.583496 10.7049L0.583496 10.705L0.583496 10.705L0.583496 10.7051L0.583496 10.7051L0.583496 10.7052L0.583496 10.7052L0.583496 10.7053L0.583496 10.7053L0.583496 10.7054L0.583496 10.7054L0.583496 10.7055L0.583496 10.7055L0.583496 10.7055L0.583496 10.7056L0.583496 10.7056L0.583496 10.7057L0.583496 10.7057L0.583496 10.7058L0.583496 10.7058L0.583496 10.7059L0.583496 10.7059L0.583496 10.706L0.583496 10.706L0.583496 10.7061L0.583496 10.7061L0.583496 10.7061L0.583496 10.7062L0.583496 10.7062L0.583496 10.7063L0.583496 10.7063L0.583496 10.7064L0.583496 10.7064L0.583496 10.7064L0.583496 10.7065L0.583496 10.7065L0.583496 10.7066L0.583496 10.7066L0.583496 10.7067L0.583496 10.7067L0.583496 10.7067L0.583496 10.7068L0.583496 10.7068L0.583496 10.7069L0.583496 10.7069L0.583496 10.7069L0.583496 10.707L0.583496 10.707L0.583496 10.7071L0.583496 10.7071L0.583496 10.7071L0.583496 10.7072L0.583496 10.7072L0.583496 10.7073L0.583496 10.7073L0.583496 10.7073L0.583496 10.7074L0.583496 10.7074L0.583496 10.7075L0.583496 10.7075L0.583496 10.7075L0.583496 10.7076L0.583496 10.7076L0.583496 10.7076L0.583496 10.7077L0.583496 10.7077L0.583496 10.7077L0.583496 10.7078L0.583496 10.7078L0.583496 10.7079L0.583496 10.7079L0.583496 10.7079L0.583496 10.708L0.583496 10.708L0.583496 10.708L0.583496 10.7081L0.583496 10.7081L0.583496 10.7081L0.583496 10.7082L0.583496 10.7082L0.583496 10.7082L0.583496 10.7083L0.583496 10.7083L0.583496 10.7083L0.583496 10.7084L0.583496 10.7084L0.583496 10.7084L0.583496 10.7085L0.583496 10.7085L0.583496 10.7085L0.583496 10.7086L0.583496 10.7086L0.583496 10.7086L0.583496 10.7087L0.583496 10.7087L0.583496 10.7087L0.583496 10.7087L0.583496 10.7088L0.583496 10.7088L0.583496 10.7088L0.583496 10.7089L0.583496 10.7089L0.583496 10.7089L0.583496 10.709L0.583496 10.709L0.583496 10.709L0.583496 10.709L0.583496 10.7091L0.583496 10.7091L0.583496 10.7091L0.583496 10.7092L0.583496 10.7092L0.583496 10.7092L0.583496 10.7092L0.583496 10.7093L0.583496 10.7093L0.583496 10.7093L0.583496 10.7093L0.583496 10.7094L0.583496 10.7094L0.583496 10.7094L0.583496 10.7094L0.583496 10.7095L0.583496 10.7095L0.583496 10.7095L0.583496 10.7095L0.583496 10.7096L0.583496 10.7096L0.583496 10.7096L0.583496 10.7096L0.583496 10.7097L0.583496 10.7097L0.583496 10.7097L0.583496 10.7097L0.583496 10.7098L0.583496 10.7098L0.583496 10.7098L0.583496 10.7098L0.583496 10.7099L0.583496 10.7099L0.583496 10.7099L0.583496 10.7099L0.583496 10.71L0.583496 10.71L0.583496 10.71L0.583496 10.71L0.583496 10.71L0.583496 10.7101L0.583496 10.7101L0.583496 10.7101L0.583496 10.7101L0.583496 10.7102L0.583496 10.7102L0.583496 10.7102L0.583496 10.7102L0.583496 10.7102L0.583496 10.7103L0.583496 10.7103L0.583496 10.7103L0.583496 10.7103L0.583496 10.7103L0.583496 10.7104L0.583496 10.7104L0.583496 10.7104L0.583496 10.7104L0.583496 10.7104L0.583496 10.7105L0.583496 10.7105L0.583496 10.7105L0.583496 10.7105L0.583496 10.7105L0.583496 10.7105L0.583496 10.7106L0.583496 10.7106L0.583496 10.7106L0.583496 10.7106L0.583496 10.7106L0.583496 10.7106L0.583496 10.7107L0.583496 10.7107L0.583496 10.7107L0.583496 10.7107L0.583496 10.7107L0.583496 10.7108L0.583496 10.7108L0.583496 10.7108L0.583496 10.7108L0.583496 10.7108L0.583496 10.7108L0.583496 10.7108L0.583496 10.7109L0.583496 10.7109L0.583496 10.7109L0.583496 10.7109L0.583496 10.7109L0.583496 10.7109L0.583496 10.711L0.583496 10.711L0.583496 10.711L0.583496 10.711L0.583496 10.711L0.583496 10.711L0.583496 10.711L0.583496 10.7111L0.583496 10.7111L0.583496 10.7111L0.583496 10.7111L0.583496 10.7111L0.583496 10.7111L0.583496 10.7111L0.583496 10.7112L0.583496 10.7112L0.583496 10.7112L0.583496 10.7112L0.583496 10.7112L0.583496 10.7112L0.583496 10.7112L0.583496 10.7112L0.583496 10.7113L0.583496 10.7113L0.583496 10.7113L0.583496 10.7113L0.583496 10.7113L0.583496 10.7113L0.583496 10.7113L0.583496 10.7113L0.583496 10.7113L0.583496 10.7114L0.583496 10.7114L0.583496 10.7114L0.583496 10.7114L0.583496 10.7114L0.583496 10.7114L0.583496 10.7114L0.583496 10.7114L0.583496 10.7114L0.583496 10.7115L0.583496 10.7115L0.583496 10.7115L0.583496 10.7115L0.583496 10.7115L0.583496 10.7115L0.583496 10.7115L0.583496 10.7115L0.583496 10.7115L0.583496 10.7115L0.583496 10.7115L0.583496 10.7116L0.583496 10.7116L0.583496 10.7116L0.583496 10.7116L0.583496 10.7116L0.583496 10.7116L0.583496 10.7116L0.583496 10.7116L0.583496 10.7116L0.583496 10.7116L0.583496 10.7116L0.583496 10.7117L0.583496 10.7117L0.583496 10.7117L0.583496 10.7117L0.583496 10.7117L0.583496 10.7117L0.583496 10.7117L0.583496 10.7117L0.583496 10.7117L0.583496 10.7117L0.583496 10.7117L0.583496 10.7118L0.583496 10.7118L0.583496 10.7118L0.583496 10.7118L0.583496 10.7118L0.583496 10.7118L0.583496 10.7118L0.583496 10.7118L0.583496 10.7119L0.583496 10.7119L0.583496 10.7119L0.583496 10.7119L0.583496 10.7119L0.583496 10.7119L0.583496 10.7119L0.583496 10.7119L0.583496 10.7119L0.583496 10.7119L0.583496 10.7119L0.583496 10.712L0.583496 10.712L0.583496 10.712L0.583496 10.712L0.583496 10.712L0.583496 10.712L0.583496 10.712L0.583496 10.712L0.583496 10.712L0.583496 10.712L0.583496 10.712L0.583496 10.712L0.583496 10.7121L0.583496 10.7121L0.583496 10.7121L0.583496 10.7121L0.583496 10.7121L0.583496 10.7121L0.583496 10.7121C0.583496 10.9472 0.672655 11.2247 0.890772 11.4216L11.0167 21.1816L11.0167 21.1816L11.0221 21.1867C11.4059 21.5457 12.0296 21.562 12.4151 21.1517C12.7746 20.7691 12.7917 20.1472 12.3832 19.7618L3.00456 10.7224Z" fill="#171717" stroke="#171717"/>
</svg>
